<svg xmlns="http://www.w3.org/2000/svg" viewBox="0 0 244.43135999999998 208.87230440910005" height="208.87230440910005"
  width="244.43135999999998">
  <g transform="matrix(1,0,0,1,72.9838324213168,55.20447792130487)"><svg
      viewBox="0 0 98.46369515736636 98.46334856649031" height="98.46334856649031" width="98.46369515736636">
      <g><svg xmlns="http://www.w3.org/2000/svg" xmlns:xlink="http://www.w3.org/1999/xlink" version="1.1" x="0" y="0"
          viewBox="7.734947204589844 7.735245704650879 84.53054809570312 84.5302505493164"
          enable-background="new 0 0 100 100" xml:space="preserve" height="98.46334856649031" width="98.46369515736636"
          class="icon-a-0" data-fill-palette-color="accent" id="a-0">
          <g fill="#ff5858" data-fill-palette-color="accent">
            <g fill="#ff5858" data-fill-palette-color="accent">
              <g fill="#ff5858" data-fill-palette-color="accent">
                <path
                  d="M28.368 14.767C42.162 16.327 48.04 25.762 49.69 30.695c1.07 3.198 1.472 5.094 1.472 9.275 0 0.817 0.044 2.076-1.054 2.216-0.77 0.099-1.209-0.509-1.273-1.182-0.289-3.026-1.159-6.569-4.008-9.85-2.253-2.594-7.472-7.802-16.652-7.021-2.669 0.228-5.052-1.868-5.129-4.564C22.964 16.703 25.531 14.446 28.368 14.767z"
                  fill="#ff5858" data-fill-palette-color="accent" />
                <path
                  d="M71.633 85.232c-13.794-1.561-19.671-10.995-21.322-15.929-1.07-3.198-1.472-5.094-1.472-9.275 0-0.817-0.044-2.076 1.054-2.216 0.77-0.099 1.209 0.509 1.273 1.182 0.289 3.026 1.159 6.569 4.008 9.85 2.253 2.594 7.472 7.802 16.652 7.021 2.669-0.228 5.052 1.868 5.129 4.564C77.037 83.296 74.47 85.553 71.633 85.232z"
                  fill="#ff5858" data-fill-palette-color="accent" />
              </g>
              <g fill="#ff5858" data-fill-palette-color="accent">
                <path
                  d="M14.768 71.633c1.56-13.794 10.995-19.672 15.928-21.322 3.198-1.07 5.094-1.472 9.276-1.472 0.817 0 2.076-0.045 2.216 1.054 0.098 0.77-0.509 1.209-1.182 1.273-3.026 0.288-6.569 1.159-9.849 4.008-2.594 2.254-7.802 7.473-7.021 16.652 0.228 2.669-1.868 5.052-4.564 5.129C16.704 77.036 14.447 74.47 14.768 71.633z"
                  fill="#ff5858" data-fill-palette-color="accent" />
                <path
                  d="M85.233 28.367c-1.56 13.794-10.995 19.672-15.928 21.322-3.198 1.07-5.094 1.472-9.276 1.472-0.817 0-2.076 0.045-2.216-1.054-0.098-0.77 0.509-1.209 1.182-1.273 3.026-0.288 6.569-1.159 9.849-4.008 2.594-2.254 7.802-7.473 7.021-16.652-0.228-2.669 1.868-5.052 4.564-5.129C83.297 22.964 85.554 25.53 85.233 28.367z"
                  fill="#ff5858" data-fill-palette-color="accent" />
              </g>
            </g>
            <g fill="#ff5858" data-fill-palette-color="accent">
              <g fill="#ff5858" data-fill-palette-color="accent">
                <path
                  d="M13.65 30.304c12.726-5.546 22.533-0.314 26.43 3.133 2.526 2.234 3.821 3.676 5.912 7.297 0.409 0.708 1.077 1.775 0.195 2.446-0.617 0.47-1.302 0.164-1.693-0.387-1.763-2.477-4.289-5.109-8.396-6.525-3.249-1.12-10.373-3.021-17.931 2.246-2.198 1.531-5.309 0.907-6.724-1.389C9.938 34.682 11.033 31.444 13.65 30.304z"
                  fill="#ff5858" data-fill-palette-color="accent" />
                <path
                  d="M86.351 69.695c-12.726 5.546-22.533 0.314-26.43-3.133-2.526-2.234-3.821-3.676-5.912-7.297-0.409-0.708-1.077-1.775-0.196-2.446 0.618-0.47 1.302-0.164 1.694 0.387 1.763 2.477 4.289 5.109 8.396 6.525 3.249 1.12 10.373 3.021 17.931-2.245 2.198-1.532 5.309-0.908 6.724 1.388C90.063 65.317 88.968 68.555 86.351 69.695z"
                  fill="#ff5858" data-fill-palette-color="accent" />
              </g>
              <g fill="#ff5858" data-fill-palette-color="accent">
                <path
                  d="M30.304 86.351c-5.546-12.726-0.314-22.533 3.133-26.43 2.235-2.525 3.676-3.821 7.298-5.912 0.708-0.409 1.775-1.076 2.445-0.195 0.47 0.617 0.164 1.302-0.387 1.693-2.477 1.764-5.109 4.289-6.525 8.396-1.12 3.248-3.021 10.372 2.246 17.931 1.531 2.198 0.908 5.31-1.389 6.725C34.683 90.062 31.445 88.968 30.304 86.351z"
                  fill="#ff5858" data-fill-palette-color="accent" />
                <path
                  d="M69.696 13.649c5.546 12.726 0.314 22.533-3.133 26.43-2.234 2.526-3.675 3.821-7.297 5.913-0.708 0.408-1.775 1.076-2.446 0.195-0.47-0.618-0.163-1.303 0.388-1.694 2.477-1.763 5.109-4.288 6.525-8.396 1.12-3.249 3.021-10.372-2.246-17.932-1.532-2.198-0.908-5.309 1.388-6.724C65.318 9.938 68.556 11.032 69.696 13.649z"
                  fill="#ff5858" data-fill-palette-color="accent" />
              </g>
            </g>
            <g fill="#ff5858" data-fill-palette-color="accent">
              <g fill="#ff5858" data-fill-palette-color="accent">
                <path
                  d="M8.671 51.118c8.248-11.166 19.357-11.539 24.456-10.502 3.305 0.672 5.147 1.272 8.769 3.363 0.708 0.408 1.82 0.999 1.392 2.021-0.299 0.716-1.045 0.793-1.66 0.512-2.765-1.263-6.269-2.28-10.533-1.453-3.374 0.654-10.494 2.57-14.406 10.911-1.138 2.425-4.144 3.44-6.518 2.159C7.646 56.766 6.976 53.414 8.671 51.118z"
                  fill="#ff5858" data-fill-palette-color="accent" />
                <path
                  d="M91.329 48.882C83.081 60.047 71.971 60.42 66.874 59.383c-3.305-0.672-5.147-1.272-8.769-3.363-0.708-0.408-1.82-0.999-1.393-2.021 0.3-0.716 1.046-0.793 1.66-0.512 2.766 1.264 6.269 2.28 10.534 1.453 3.373-0.654 10.493-2.569 14.406-10.91 1.138-2.426 4.144-3.441 6.517-2.16C92.354 43.233 93.025 46.585 91.329 48.882z"
                  fill="#ff5858" data-fill-palette-color="accent" />
              </g>
              <g fill="#ff5858" data-fill-palette-color="accent">
                <path
                  d="M51.119 91.329C39.953 83.081 39.58 71.972 40.617 66.874c0.673-3.305 1.272-5.147 3.364-8.77 0.409-0.708 1-1.819 2.02-1.392 0.716 0.3 0.793 1.045 0.512 1.66-1.263 2.765-2.28 6.269-1.453 10.533 0.654 3.374 2.57 10.493 10.911 14.406 2.425 1.138 3.44 4.144 2.159 6.518C56.766 92.354 53.415 93.025 51.119 91.329z"
                  fill="#ff5858" data-fill-palette-color="accent" />
                <path
                  d="M48.882 8.672c11.166 8.247 11.538 19.356 10.501 24.455-0.672 3.305-1.271 5.147-3.362 8.77-0.409 0.707-1 1.819-2.021 1.392-0.716-0.3-0.792-1.046-0.511-1.661 1.263-2.765 2.28-6.268 1.453-10.533-0.655-3.373-2.57-10.492-10.911-14.406-2.426-1.137-3.44-4.144-2.159-6.517C43.234 7.646 46.585 6.976 48.882 8.672z"
                  fill="#ff5858" data-fill-palette-color="accent" />
              </g>
            </g>
          </g>
        </svg></g>
    </svg></g>
  <path
    d="M21.418 76.507C20.99 76.48 20.681 76.638 20.494 76.982V76.982L19.487 76.58C19.638 76.237 19.883 75.949 20.22 75.716V75.716C20.588 75.481 21.009 75.382 21.484 75.42V75.42L35.19 76.344 36.5 76.585 35.414 75.839 23.807 66.26 24.257 65.132 39.27 66.167 40.564 66.391 39.478 65.644 27.872 56.065 28.284 55.03 41.692 66.192 41.242 67.32 25.506 66.31 37.631 76.377 37.181 77.506ZM55.527 45.391L43.643 33.847 50.926 26.349 51.624 27.027 45.048 33.798 49.578 38.199 54.42 33.214 55.119 33.893 50.277 38.877 55.535 43.985 62.454 36.861 63.153 37.54ZM106.135 17.939C105.38 18.087 104.573 18.077 103.715 17.911 102.865 17.749 102.085 17.441 101.376 16.987 100.674 16.537 100.14 15.97 99.774 15.284V15.284L100.629 14.738C101.167 15.643 101.945 16.289 102.962 16.677 103.974 17.072 104.969 17.174 105.948 16.983V16.983C106.73 16.83 107.406 16.521 107.977 16.054 108.555 15.593 108.972 15.024 109.229 14.347 109.479 13.67 109.531 12.961 109.386 12.218V12.218C109.237 11.456 108.851 10.86 108.228 10.429 107.599 10.006 106.623 9.563 105.297 9.099V9.099L103.931 8.65C102.967 8.361 102.213 8.099 101.669 7.864 101.12 7.637 100.65 7.327 100.259 6.933 99.875 6.537 99.62 6.017 99.494 5.374V5.374C99.348 4.625 99.405 3.924 99.667 3.273 99.935 2.62 100.367 2.075 100.964 1.638 101.56 1.201 102.256 0.905 103.051 0.749V0.749C104.05 0.554 104.937 0.626 105.713 0.966 106.483 1.313 106.954 1.872 107.125 2.644V2.644L106.071 2.799C105.917 2.29 105.551 1.952 104.973 1.786 104.388 1.62 103.787 1.598 103.169 1.719V1.719C102.597 1.83 102.089 2.056 101.644 2.395 101.199 2.735 100.87 3.147 100.658 3.632 100.44 4.125 100.379 4.614 100.474 5.1V5.1C100.623 5.862 101.034 6.43 101.707 6.803 102.379 7.17 103.271 7.507 104.381 7.815V7.815C104.832 7.925 105.184 8.03 105.435 8.131V8.131C107.028 8.706 108.217 9.275 109.002 9.838 109.781 10.402 110.258 11.134 110.434 12.034V12.034C110.62 12.987 110.546 13.881 110.212 14.717 109.872 15.561 109.344 16.261 108.627 16.817 107.905 17.381 107.075 17.755 106.135 17.939ZM131.596 16.405L133.917 0 134.921 0.142 133.878 7.509 143.373 8.853 144.416 1.486 145.42 1.628 143.099 18.032 142.095 17.89 143.238 9.807 133.743 8.464 132.6 16.547ZM161.613 24.909L176.344 13.742 176.51 13.837 174.281 32.208 173.297 31.641 174.035 25.553 167.449 21.759 162.579 25.465ZM174.182 24.514L175.024 17.965C175.083 17.473 175.171 16.945 175.289 16.379 175.4 15.81 175.47 15.467 175.498 15.352V15.352L175.131 15.708C174.544 16.297 174.018 16.767 173.554 17.117V17.117L168.266 21.105ZM196.933 53.738L196.583 54.57C196.352 54.493 196.127 54.323 195.907 54.062V54.062C195.481 53.554 195.35 52.961 195.514 52.281V52.281L196.727 47.434C196.937 46.559 197.005 45.833 196.931 45.256 196.854 44.675 196.628 44.099 196.255 43.53V43.53L196.947 42.949 198.161 44.394C198.897 45.271 199.768 45.751 200.773 45.834 201.777 45.917 202.731 45.579 203.633 44.822V44.822C204.51 44.086 205.013 43.222 205.142 42.231 205.271 41.239 205.004 40.349 204.342 39.559V39.559L201.63 36.329 189.687 46.357 189.035 45.58 201.716 34.933 205.138 39.009C205.689 39.665 206.027 40.391 206.153 41.185 206.269 41.98 206.17 42.762 205.855 43.533 205.541 44.304 205.028 44.988 204.315 45.587V45.587C203.31 46.43 202.274 46.846 201.206 46.834 200.133 46.826 199.193 46.404 198.387 45.569V45.569C198.008 45.17 197.72 44.852 197.522 44.617V44.617C197.742 44.983 197.875 45.282 197.921 45.514 197.967 45.746 197.953 46.042 197.879 46.401V46.401C197.693 47.231 197.45 48.278 197.149 49.545 196.854 50.807 196.609 51.812 196.416 52.56V52.56C196.328 52.913 196.387 53.213 196.594 53.459V53.459C196.719 53.608 196.832 53.701 196.933 53.738ZM205.767 72.189L221.316 66.467 224.926 76.276 224.012 76.613 220.752 67.755 214.824 69.936 217.224 76.457 216.31 76.793 213.91 70.272 207.031 72.804 210.461 82.124 209.547 82.46ZM37.906 129.783C38.237 129.513 38.351 129.186 38.248 128.802V128.802L39.273 128.391C39.4 128.744 39.423 129.124 39.341 129.532V129.532C39.227 129.967 38.986 130.338 38.619 130.644V130.644L27.88 139.558 26.741 140.307 28.061 140.091 43.326 139.012 43.786 140.159 32 149.915 30.889 150.652 32.209 150.437 47.474 149.358 47.896 150.411 30.204 151.587 29.748 150.45 42.037 140.168 26.056 141.242 25.6 140.104ZM46.664 176.33L58.71 164.578 66.128 172.182 65.424 172.869 58.727 166.005 54.135 170.486 59.064 175.539 58.36 176.226 53.43 171.173 48.09 176.383 55.13 183.599 54.426 184.286ZM103.539 208.261C102.771 208.11 102.014 207.795 101.269 207.315 100.53 206.837 99.915 206.249 99.424 205.553 98.932 204.856 98.648 204.115 98.57 203.329V203.329L99.575 203.157C99.738 204.206 100.223 205.109 101.03 205.867 101.83 206.624 102.73 207.1 103.728 207.295V207.295C104.517 207.449 105.273 207.42 105.996 207.206 106.715 206.985 107.321 206.606 107.815 206.068 108.316 205.532 108.64 204.886 108.788 204.13V204.13C108.939 203.355 108.802 202.646 108.375 202.003 107.948 201.361 107.2 200.566 106.13 199.62V199.62L105.015 198.676C104.219 198.036 103.61 197.504 103.188 197.081 102.76 196.656 102.436 196.183 102.217 195.663 102.005 195.144 101.964 194.553 102.094 193.889V193.889C102.241 193.134 102.566 192.501 103.068 191.992 103.565 191.476 104.179 191.128 104.909 190.951 105.641 190.766 106.408 190.753 107.209 190.909V190.909C108.227 191.109 109.034 191.515 109.631 192.13 110.225 192.751 110.455 193.458 110.321 194.25V194.25L109.266 193.992C109.324 193.451 109.11 192.993 108.624 192.619 108.133 192.236 107.575 191.984 106.951 191.862V191.862C106.373 191.749 105.81 191.768 105.262 191.92 104.714 192.072 104.243 192.335 103.849 192.708 103.462 193.082 103.22 193.519 103.122 194.019V194.019C102.971 194.794 103.14 195.482 103.629 196.082 104.118 196.689 104.827 197.353 105.757 198.074V198.074C106.14 198.347 106.429 198.577 106.624 198.765V198.765C107.906 199.917 108.807 200.908 109.327 201.739 109.854 202.566 110.028 203.438 109.848 204.358V204.358C109.659 205.324 109.244 206.136 108.604 206.796 107.963 207.455 107.199 207.912 106.31 208.168 105.415 208.416 104.492 208.447 103.539 208.261ZM133.22 208.872L130.875 192.207 131.899 192.063 132.951 199.541 142.596 198.183 141.544 190.706 142.568 190.562 144.913 207.227 143.889 207.371 142.733 199.158 133.088 200.515 134.244 208.728ZM167.711 198.884L165.419 180.242 165.585 180.147 180.593 191.472 179.592 192.048 174.617 188.295 167.924 192.146 168.695 198.318ZM173.787 187.638L168.456 183.546C168.054 183.252 167.633 182.907 167.19 182.513 166.75 182.125 166.487 181.89 166.402 181.808V181.808L166.516 182.31C166.744 183.121 166.891 183.82 166.959 184.407V184.407L167.773 191.098ZM205.343 166.145L206.23 166.354C206.194 166.604 206.067 166.86 205.847 167.121V167.121C205.412 167.638 204.838 167.873 204.126 167.825V167.825L199.064 167.463C198.146 167.399 197.407 167.456 196.847 167.632 196.278 167.81 195.741 168.136 195.236 168.612V168.612L194.537 168.024 195.771 166.556C196.521 165.665 196.85 164.708 196.757 163.685 196.664 162.662 196.159 161.765 195.242 160.993V160.993C194.351 160.243 193.399 159.893 192.387 159.942 191.369 159.987 190.522 160.412 189.845 161.216V161.216L187.091 164.489 199.216 174.69 198.55 175.482 185.672 164.647 189.157 160.505C189.717 159.839 190.385 159.378 191.161 159.121 191.932 158.86 192.732 158.82 193.56 159 194.383 159.176 195.16 159.573 195.893 160.189V160.189C196.907 161.042 197.503 162.008 197.682 163.085 197.859 164.153 197.6 165.168 196.903 166.131V166.131C196.571 166.578 196.306 166.919 196.108 167.154V167.154C196.426 166.87 196.699 166.685 196.93 166.599 197.155 166.508 197.453 166.471 197.825 166.486V166.486C198.693 166.525 199.784 166.586 201.097 166.668 202.415 166.744 203.466 166.81 204.25 166.866V166.866C204.609 166.897 204.894 166.787 205.105 166.536V166.536C205.235 166.382 205.314 166.252 205.343 166.145ZM217.446 145.188L201.661 139.351 205.346 129.387 206.269 129.728 202.943 138.722 208.961 140.948 211.409 134.327 212.332 134.668 209.884 141.289 216.882 143.876 220.378 134.421 221.301 134.762ZM19.224 106.43C19.224 102.833 22.14 99.917 25.737 99.917 29.334 99.917 32.25 102.833 32.25 106.43 32.25 110.027 29.334 112.944 25.737 112.944 22.14 112.944 19.224 110.027 19.224 106.43ZM212.182 106.43C212.182 102.833 215.098 99.917 218.695 99.917 222.292 99.917 225.208 102.833 225.208 106.43 225.208 110.027 222.292 112.944 218.695 112.944 215.098 112.944 212.182 110.027 212.182 106.43Z"
    fill="#ff5858" data-fill-palette-color="accent" />
</svg>
